<svg width="10" height="11" viewBox="0 0 10 11" fill="none" xmlns="http://www.w3.org/2000/svg">
<path d="M3.93234 2.51734C3.84211 2.27758 3.60423 2.14997 3.37689 2.21829L2.34569 2.52765C2.14179 2.58952 2 2.79318 2 3.02521C2 6.21421 4.35068 8.79995 7.24977 8.79995C7.4607 8.79995 7.64584 8.64398 7.70209 8.41969L7.98333 7.28537C8.04544 7.0353 7.92943 6.77363 7.71147 6.67438L6.58652 6.15878C6.39551 6.07113 6.17403 6.13171 6.04396 6.3083L5.57055 6.94378C4.74558 6.51454 4.07764 5.77981 3.68743 4.87235L4.26513 4.35288C4.42567 4.20851 4.48075 3.96618 4.40107 3.75607L3.93234 2.51863V2.51734Z" fill="#767676"/>
</svg>
