<svg width="8" height="11" viewBox="0 0 8 11" fill="none" xmlns="http://www.w3.org/2000/svg">
<path d="M4 5.49996C4.22917 5.49996 4.42535 5.4102 4.58854 5.23069C4.75174 5.05117 4.83333 4.83538 4.83333 4.58329C4.83333 4.33121 4.75174 4.11541 4.58854 3.9359C4.42535 3.75638 4.22917 3.66663 4 3.66663C3.77083 3.66663 3.57465 3.75638 3.41146 3.9359C3.24826 4.11541 3.16667 4.33121 3.16667 4.58329C3.16667 4.83538 3.24826 5.05117 3.41146 5.23069C3.57465 5.4102 3.77083 5.49996 4 5.49996ZM4 8.86871C4.84722 8.01315 5.47569 7.2359 5.88542 6.53694C6.29514 5.83798 6.5 5.21732 6.5 4.67496C6.5 3.84232 6.25868 3.16055 5.77604 2.62965C5.2934 2.09874 4.70139 1.83329 4 1.83329C3.29861 1.83329 2.7066 2.09874 2.22396 2.62965C1.74132 3.16055 1.5 3.84232 1.5 4.67496C1.5 5.21732 1.70486 5.83798 2.11458 6.53694C2.52431 7.2359 3.15278 8.01315 4 8.86871ZM4 10.0833C2.88194 9.03676 2.04687 8.06472 1.49479 7.16715C0.942708 6.26958 0.666666 5.43885 0.666666 4.67496C0.666666 3.52913 1.00174 2.61628 1.67187 1.93642C2.34201 1.25656 3.11805 0.916626 4 0.916626C4.88194 0.916626 5.65799 1.25656 6.32812 1.93642C6.99826 2.61628 7.33333 3.52913 7.33333 4.67496C7.33333 5.43885 7.05729 6.26958 6.50521 7.16715C5.95312 8.06472 5.11806 9.03676 4 10.0833Z" fill="#767676"/>
</svg>
