<svg width="12" height="12" viewBox="0 0 12 12" fill="none" xmlns="http://www.w3.org/2000/svg">
<g id="Group 121">
<path id="Star 1" d="M5.81534 0.443986C5.88366 0.279727 6.11634 0.279727 6.18466 0.443986L7.54011 3.70286C7.56891 3.77211 7.63403 3.81942 7.70879 3.82542L11.227 4.10747C11.4044 4.12169 11.4763 4.34299 11.3411 4.45872L8.66063 6.75487C8.60367 6.80366 8.57879 6.88022 8.5962 6.95317L9.41514 10.3864C9.45642 10.5594 9.26817 10.6962 9.11635 10.6035L6.10425 8.76368C6.04025 8.72458 5.95975 8.72458 5.89575 8.76368L2.88365 10.6035C2.73183 10.6962 2.54358 10.5594 2.58486 10.3864L3.4038 6.95317C3.4212 6.88022 3.39633 6.80366 3.33937 6.75487L0.658852 4.45872C0.523745 4.34299 0.59565 4.12169 0.772981 4.10747L4.29121 3.82542C4.36597 3.81942 4.43109 3.77211 4.45989 3.70286L5.81534 0.443986Z" fill="#FF414D"/>
</g>
</svg>
