<svg width="13" height="14" viewBox="0 0 13 14" fill="none" xmlns="http://www.w3.org/2000/svg">
<path d="M5.18164 5.15704L6.5 1.98733L7.81836 5.15705C7.90416 5.36335 8.09817 5.5043 8.32089 5.52215L11.7429 5.79649L9.13568 8.02982C8.96599 8.17517 8.89188 8.40324 8.94373 8.62058L9.74026 11.9598L6.81058 10.1704C6.6199 10.0539 6.3801 10.0539 6.18942 10.1704L3.25974 11.9598L4.05627 8.62058C4.10811 8.40325 4.03401 8.17517 3.86432 8.02982L1.25714 5.79649L4.67911 5.52215C4.90183 5.5043 5.09584 5.36334 5.18164 5.15704ZM9.83092 12.3399C9.83089 12.3398 9.83087 12.3397 9.83085 12.3396L9.83092 12.3399ZM0.960426 5.54232C0.960488 5.54238 0.96055 5.54243 0.960612 5.54248L0.960426 5.54232L0.854711 5.66573L0.960426 5.54232Z" stroke="#767676" stroke-width="0.758333"/>
</svg>
