<svg width="24" height="24" viewBox="0 0 24 24" fill="none" xmlns="http://www.w3.org/2000/svg">
<path d="M13.7933 10.5263C14.1592 10.762 14.5132 10.9817 14.8586 11.214C15.9158 11.925 16.8998 12.7258 17.7962 13.6304C18.1943 14.0323 18.563 14.4641 18.9749 14.8509C19.9329 15.7505 21.0704 16.3052 22.3727 16.518C22.575 16.551 22.7794 16.5702 22.9996 16.5977C22.8696 16.7879 22.7455 16.9693 22.6213 17.1508C22.0018 18.0548 21.3809 18.9578 20.7646 19.8638C20.6847 19.981 20.5948 20.0124 20.4546 19.9956C18.7204 19.7885 17.2894 18.9828 16.0518 17.7962C15.5883 17.3517 15.1449 16.886 14.6738 16.4496C14.0159 15.8402 13.3082 15.2932 12.5035 14.8827C12.4245 14.8424 12.4114 14.7966 12.4415 14.7177C12.9499 13.3871 13.3384 12.0184 13.7427 10.6547C13.753 10.6196 13.7698 10.5858 13.7933 10.5263Z" fill="#0F4C93"/>
<path d="M4.70196 5C4.81426 5.04211 4.99031 5.09474 5.15439 5.17232C5.74996 5.45358 6.27948 5.83965 6.79888 6.23671C7.59213 6.84316 8.3748 7.46312 9.16322 8.07598C9.2311 8.12884 9.24146 8.18285 9.21914 8.26432C8.83759 9.6539 8.45856 11.0444 8.08046 12.4349C8.0563 12.5235 8.0273 12.5685 7.92237 12.5248C6.61616 11.9827 5.2897 11.4877 4.02538 10.8492C3.41945 10.5432 2.83032 10.2096 2.31369 9.76535C2.17584 9.64681 2.05733 9.50446 1.94157 9.36326C1.8532 9.25547 1.85918 9.13304 1.93398 9.01243C2.72101 7.74003 3.50759 6.46739 4.29256 5.19384C4.37287 5.06431 4.48541 5.00435 4.70196 5Z" fill="#0F4C93"/>
<path d="M18.9597 5.25494C19.2511 5.23526 19.4375 5.38722 19.5645 5.62751C19.9962 6.44313 20.4263 7.25944 20.8562 8.07598C21.0746 8.49111 21.29 8.90762 21.5082 9.32276C21.6092 9.51499 21.6011 9.66672 21.4483 9.82325C21.3399 9.93447 21.2184 10.0381 21.0882 10.1228C20.4249 10.5547 19.7026 10.8707 18.9715 11.1664C18.2592 11.4543 17.5419 11.7305 16.8278 12.014C16.7206 12.0566 16.6347 12.0463 16.5425 11.9712C15.7669 11.3394 14.9424 10.7773 14.0801 10.27C13.9386 10.1867 13.9289 10.1652 13.971 10.0139C14.1401 9.40583 14.3127 8.79846 14.4773 8.18926C14.512 8.06042 14.5956 7.98238 14.6913 7.90388C15.5471 7.2036 16.4113 6.51293 17.3511 5.9257C17.6777 5.72179 18.0217 5.54192 18.3708 5.37898C18.5496 5.29567 18.7574 5.27371 18.9521 5.22404C18.9549 5.23457 18.9574 5.24464 18.9597 5.25494Z" fill="#0F4C93"/>
<path d="M10.9216 14.4632C10.5481 14.7742 10.1951 15.0786 9.83127 15.3697C8.00589 16.8286 6.08594 18.1511 4.05966 19.3201C4.02652 19.3393 3.99223 19.3567 3.96024 19.3773C3.87441 19.4327 3.80836 19.4169 3.74162 19.3382C3.43762 18.9798 3.12994 18.6244 2.82295 18.2683C2.24648 17.5996 1.66955 16.9313 1.09308 16.2629C1.06362 16.2285 1.0367 16.1919 0.999878 16.1452C1.04084 16.1198 1.07283 16.0949 1.10896 16.0784C2.86345 15.279 4.51186 14.3002 6.07374 13.1752C6.30341 13.0098 6.53491 12.8459 6.75469 12.6679C6.88379 12.5633 6.99816 12.5502 7.15258 12.6122C7.92742 12.923 8.67602 13.2887 9.41566 13.6734C9.89064 13.9206 10.3649 14.1687 10.8395 14.4165C10.8588 14.4266 10.8779 14.4382 10.9216 14.4632Z" fill="#0F4C93"/>
<path d="M13.989 8.37051C13.9128 8.63369 13.844 8.88222 13.769 9.12892C13.2866 10.7158 12.8036 12.3022 12.3187 13.8883C12.2653 14.0627 12.199 14.2334 12.1378 14.4055C12.0667 14.6046 12.0347 14.6186 11.8497 14.5227C11.4217 14.3009 10.9948 14.0771 10.567 13.8549C9.90143 13.5093 9.2359 13.1642 8.56991 12.8196C8.427 12.7457 8.41389 12.721 8.45439 12.5683C8.82006 11.1861 9.18688 9.80403 9.55072 8.42131C9.57971 8.31078 9.63126 8.26798 9.75024 8.27096C10.5969 8.29178 11.444 8.3046 12.2906 8.32291C12.8153 8.33435 13.34 8.3506 13.8647 8.36501C13.8985 8.3657 13.9326 8.36776 13.989 8.37051Z" fill="#0F4C93"/>
</svg>
